<mxfile host="app.diagrams.net" modified="2023-12-05T05:08:52.901Z" agent="Mozilla/5.0 (Windows NT 10.0; Win64; x64) AppleWebKit/537.36 (KHTML, like Gecko) Chrome/119.0.0.0 Safari/537.36" etag="ShKOHDtglRPTWc8IjnFd" version="22.1.5" type="github">
  <diagram name="Page-1" id="uV5QMg4vglMdyqab4mBE">
    <mxGraphModel dx="1746" dy="478" grid="1" gridSize="10" guides="1" tooltips="1" connect="1" arrows="1" fold="1" page="1" pageScale="1" pageWidth="850" pageHeight="1100" math="0" shadow="0">
      <root>
        <mxCell id="0" />
        <mxCell id="1" parent="0" />
        <mxCell id="9TLFl92zetQN1260GhGK-32" value="" style="edgeStyle=orthogonalEdgeStyle;rounded=0;orthogonalLoop=1;jettySize=auto;html=1;" edge="1" parent="1" source="9TLFl92zetQN1260GhGK-4" target="9TLFl92zetQN1260GhGK-5">
          <mxGeometry relative="1" as="geometry" />
        </mxCell>
        <mxCell id="9TLFl92zetQN1260GhGK-4" value="Mengambil" style="shape=rhombus;perimeter=rhombusPerimeter;whiteSpace=wrap;html=1;align=center;labelBackgroundColor=none;" vertex="1" parent="1">
          <mxGeometry x="85" y="250" width="90" height="50" as="geometry" />
        </mxCell>
        <mxCell id="9TLFl92zetQN1260GhGK-34" value="" style="edgeStyle=orthogonalEdgeStyle;rounded=0;orthogonalLoop=1;jettySize=auto;html=1;" edge="1" parent="1" source="9TLFl92zetQN1260GhGK-5">
          <mxGeometry relative="1" as="geometry">
            <mxPoint x="400" y="360" as="targetPoint" />
            <Array as="points">
              <mxPoint x="361" y="395" />
            </Array>
          </mxGeometry>
        </mxCell>
        <mxCell id="9TLFl92zetQN1260GhGK-36" value="" style="edgeStyle=orthogonalEdgeStyle;rounded=0;orthogonalLoop=1;jettySize=auto;html=1;" edge="1" parent="1" source="9TLFl92zetQN1260GhGK-5" target="9TLFl92zetQN1260GhGK-38">
          <mxGeometry relative="1" as="geometry">
            <mxPoint x="130" y="465" as="targetPoint" />
          </mxGeometry>
        </mxCell>
        <mxCell id="9TLFl92zetQN1260GhGK-42" value="" style="edgeStyle=orthogonalEdgeStyle;rounded=0;orthogonalLoop=1;jettySize=auto;html=1;" edge="1" parent="1" source="9TLFl92zetQN1260GhGK-5">
          <mxGeometry relative="1" as="geometry">
            <mxPoint x="220" y="450" as="targetPoint" />
            <Array as="points">
              <mxPoint x="130" y="420" />
              <mxPoint x="220" y="420" />
              <mxPoint x="220" y="450" />
            </Array>
          </mxGeometry>
        </mxCell>
        <mxCell id="9TLFl92zetQN1260GhGK-43" value="" style="edgeStyle=orthogonalEdgeStyle;rounded=0;orthogonalLoop=1;jettySize=auto;html=1;entryX=0.658;entryY=-0.1;entryDx=0;entryDy=0;entryPerimeter=0;" edge="1" parent="1" source="9TLFl92zetQN1260GhGK-5">
          <mxGeometry relative="1" as="geometry">
            <mxPoint x="50.99499999999989" y="446" as="targetPoint" />
            <Array as="points">
              <mxPoint x="130" y="420" />
              <mxPoint x="51" y="420" />
            </Array>
          </mxGeometry>
        </mxCell>
        <mxCell id="9TLFl92zetQN1260GhGK-5" value="Studi" style="whiteSpace=wrap;html=1;align=center;labelBackgroundColor=none;" vertex="1" parent="1">
          <mxGeometry x="92.5" y="380" width="75" height="30" as="geometry" />
        </mxCell>
        <mxCell id="9TLFl92zetQN1260GhGK-48" value="" style="edgeStyle=orthogonalEdgeStyle;rounded=0;orthogonalLoop=1;jettySize=auto;html=1;" edge="1" parent="1" source="9TLFl92zetQN1260GhGK-6" target="9TLFl92zetQN1260GhGK-46">
          <mxGeometry relative="1" as="geometry" />
        </mxCell>
        <mxCell id="9TLFl92zetQN1260GhGK-49" value="" style="edgeStyle=orthogonalEdgeStyle;rounded=0;orthogonalLoop=1;jettySize=auto;html=1;entryX=0.5;entryY=1;entryDx=0;entryDy=0;" edge="1" parent="1" source="9TLFl92zetQN1260GhGK-6" target="9TLFl92zetQN1260GhGK-45">
          <mxGeometry relative="1" as="geometry">
            <Array as="points">
              <mxPoint x="620" y="80" />
              <mxPoint x="705" y="80" />
            </Array>
          </mxGeometry>
        </mxCell>
        <mxCell id="9TLFl92zetQN1260GhGK-50" value="" style="edgeStyle=orthogonalEdgeStyle;rounded=0;orthogonalLoop=1;jettySize=auto;html=1;exitX=0.5;exitY=0;exitDx=0;exitDy=0;" edge="1" parent="1" source="9TLFl92zetQN1260GhGK-6">
          <mxGeometry relative="1" as="geometry">
            <mxPoint x="540" y="60" as="targetPoint" />
            <Array as="points">
              <mxPoint x="620" y="80" />
              <mxPoint x="540" y="80" />
              <mxPoint x="540" y="60" />
            </Array>
          </mxGeometry>
        </mxCell>
        <mxCell id="9TLFl92zetQN1260GhGK-6" value="Sekolah" style="whiteSpace=wrap;html=1;align=center;labelBackgroundColor=none;" vertex="1" parent="1">
          <mxGeometry x="580" y="130" width="80" height="30" as="geometry" />
        </mxCell>
        <mxCell id="9TLFl92zetQN1260GhGK-20" value="" style="edgeStyle=orthogonalEdgeStyle;rounded=0;orthogonalLoop=1;jettySize=auto;html=1;" edge="1" parent="1" source="9TLFl92zetQN1260GhGK-7" target="9TLFl92zetQN1260GhGK-12">
          <mxGeometry relative="1" as="geometry" />
        </mxCell>
        <mxCell id="9TLFl92zetQN1260GhGK-21" value="" style="edgeStyle=orthogonalEdgeStyle;rounded=0;orthogonalLoop=1;jettySize=auto;html=1;" edge="1" parent="1" source="9TLFl92zetQN1260GhGK-7">
          <mxGeometry relative="1" as="geometry">
            <mxPoint x="223" y="60" as="targetPoint" />
            <Array as="points">
              <mxPoint x="130" y="80" />
              <mxPoint x="223" y="80" />
              <mxPoint x="223" y="60" />
            </Array>
          </mxGeometry>
        </mxCell>
        <mxCell id="9TLFl92zetQN1260GhGK-26" value="" style="edgeStyle=orthogonalEdgeStyle;rounded=0;orthogonalLoop=1;jettySize=auto;html=1;entryX=0.5;entryY=1;entryDx=0;entryDy=0;" edge="1" parent="1" source="9TLFl92zetQN1260GhGK-7">
          <mxGeometry relative="1" as="geometry">
            <mxPoint x="40" y="60" as="targetPoint" />
            <Array as="points">
              <mxPoint x="130" y="80" />
              <mxPoint x="40" y="80" />
            </Array>
          </mxGeometry>
        </mxCell>
        <mxCell id="9TLFl92zetQN1260GhGK-28" value="" style="edgeStyle=orthogonalEdgeStyle;rounded=0;orthogonalLoop=1;jettySize=auto;html=1;entryX=0;entryY=0.5;entryDx=0;entryDy=0;" edge="1" parent="1" source="9TLFl92zetQN1260GhGK-7" target="9TLFl92zetQN1260GhGK-8">
          <mxGeometry relative="1" as="geometry">
            <mxPoint x="240" y="145" as="targetPoint" />
            <Array as="points">
              <mxPoint x="320" y="145" />
            </Array>
          </mxGeometry>
        </mxCell>
        <mxCell id="9TLFl92zetQN1260GhGK-31" value="" style="edgeStyle=orthogonalEdgeStyle;rounded=0;orthogonalLoop=1;jettySize=auto;html=1;" edge="1" parent="1" source="9TLFl92zetQN1260GhGK-7" target="9TLFl92zetQN1260GhGK-4">
          <mxGeometry relative="1" as="geometry" />
        </mxCell>
        <mxCell id="9TLFl92zetQN1260GhGK-7" value="Siswa" style="whiteSpace=wrap;html=1;align=center;labelBackgroundColor=none;" vertex="1" parent="1">
          <mxGeometry x="95" y="130" width="70" height="30" as="geometry" />
        </mxCell>
        <mxCell id="9TLFl92zetQN1260GhGK-30" value="" style="edgeStyle=orthogonalEdgeStyle;rounded=0;orthogonalLoop=1;jettySize=auto;html=1;entryX=0;entryY=0.5;entryDx=0;entryDy=0;" edge="1" parent="1" source="9TLFl92zetQN1260GhGK-8" target="9TLFl92zetQN1260GhGK-6">
          <mxGeometry relative="1" as="geometry">
            <mxPoint x="505" y="145" as="targetPoint" />
          </mxGeometry>
        </mxCell>
        <mxCell id="9TLFl92zetQN1260GhGK-8" value="Belajar" style="shape=rhombus;perimeter=rhombusPerimeter;whiteSpace=wrap;html=1;align=center;labelBackgroundColor=none;" vertex="1" parent="1">
          <mxGeometry x="330" y="122.5" width="120" height="45" as="geometry" />
        </mxCell>
        <mxCell id="9TLFl92zetQN1260GhGK-41" value="" style="edgeStyle=orthogonalEdgeStyle;rounded=0;orthogonalLoop=1;jettySize=auto;html=1;entryX=0.5;entryY=1;entryDx=0;entryDy=0;" edge="1" parent="1" source="9TLFl92zetQN1260GhGK-9" target="9TLFl92zetQN1260GhGK-6">
          <mxGeometry relative="1" as="geometry">
            <mxPoint x="600" y="360" as="targetPoint" />
          </mxGeometry>
        </mxCell>
        <mxCell id="9TLFl92zetQN1260GhGK-9" value="Digunakan di" style="shape=rhombus;perimeter=rhombusPerimeter;whiteSpace=wrap;html=1;align=center;labelBackgroundColor=none;" vertex="1" parent="1">
          <mxGeometry x="400" y="330" width="110" height="60" as="geometry" />
        </mxCell>
        <mxCell id="9TLFl92zetQN1260GhGK-10" value="Alamat Siswa" style="ellipse;whiteSpace=wrap;html=1;align=center;labelBackgroundColor=none;" vertex="1" parent="1">
          <mxGeometry x="180" y="20" width="85" height="40" as="geometry" />
        </mxCell>
        <mxCell id="9TLFl92zetQN1260GhGK-12" value="Nama Siswa" style="ellipse;whiteSpace=wrap;html=1;align=center;labelBackgroundColor=none;" vertex="1" parent="1">
          <mxGeometry x="90" width="80" height="40" as="geometry" />
        </mxCell>
        <mxCell id="9TLFl92zetQN1260GhGK-37" value="Nama Pembimbing" style="ellipse;whiteSpace=wrap;html=1;align=center;" vertex="1" parent="1">
          <mxGeometry x="180" y="450" width="85" height="40" as="geometry" />
        </mxCell>
        <mxCell id="9TLFl92zetQN1260GhGK-38" value="Nama Bidang Studi" style="ellipse;whiteSpace=wrap;html=1;align=center;" vertex="1" parent="1">
          <mxGeometry x="83.75" y="470" width="91.25" height="50" as="geometry" />
        </mxCell>
        <mxCell id="9TLFl92zetQN1260GhGK-45" value="Alamat Sekolah" style="ellipse;whiteSpace=wrap;html=1;align=center;" vertex="1" parent="1">
          <mxGeometry x="670" y="20" width="70" height="40" as="geometry" />
        </mxCell>
        <mxCell id="9TLFl92zetQN1260GhGK-46" value="Nama Sekolah" style="ellipse;whiteSpace=wrap;html=1;align=center;" vertex="1" parent="1">
          <mxGeometry x="580" width="80" height="40" as="geometry" />
        </mxCell>
        <mxCell id="9TLFl92zetQN1260GhGK-51" value="NIS" style="ellipse;whiteSpace=wrap;html=1;align=center;fontStyle=4;" vertex="1" parent="1">
          <mxGeometry x="-1.25" y="20" width="85" height="40" as="geometry" />
        </mxCell>
        <mxCell id="9TLFl92zetQN1260GhGK-52" value="Kode Studi" style="ellipse;whiteSpace=wrap;html=1;align=center;fontStyle=4;" vertex="1" parent="1">
          <mxGeometry x="-1.25" y="450" width="80" height="40" as="geometry" />
        </mxCell>
        <mxCell id="9TLFl92zetQN1260GhGK-53" value="Kode Sekolah" style="ellipse;whiteSpace=wrap;html=1;align=center;fontStyle=4;" vertex="1" parent="1">
          <mxGeometry x="500" y="20" width="70" height="40" as="geometry" />
        </mxCell>
      </root>
    </mxGraphModel>
  </diagram>
</mxfile>
